# xmcd
#
# Track frame offsets: 
#        150
#        11235
#        26179
#        36509
#        49559
#        64563
#        77325
#        88388
#        100060
#        112048
#        126011
#        139936
#        154852
#        173186
#        186466
#
# Disc length: 2756 seconds
#
# Revision: 1
# Processed by: cddbd v1.5.2PL0 Copyright (c) Steve Scherf et al.
# Submitted via: ExactAudioCopyFreeDBPlugin 1.0
#
DISCID=cf0ac20f
DTITLE=Interstate 40 Rhythm Kings - Knockin' At Your Front Door
DYEAR=2005
DGENRE=Blues
TTITLE0=At My Front Door
TTITLE1=Smooth Slow And Easy
TTITLE2=Hurry Home
TTITLE3=Queen Of Hearts
TTITLE4=Too Late Old Man
TTITLE5=Rolling Your Dice
TTITLE6=Sexy Ways
TTITLE7=Boogie Woogie King
TTITLE8=You Got Me Dizzy
TTITLE9=64 Hours
TTITLE10=Take You Back Home
TTITLE11=Kokomo
TTITLE12=Everything You Do To Me
TTITLE13=Teardrops
TTITLE14=Tell Mama
EXTD=
EXTT0=
EXTT1=
EXTT2=
EXTT3=
EXTT4=
EXTT5=
EXTT6=
EXTT7=
EXTT8=
EXTT9=
EXTT10=
EXTT11=
EXTT12=
EXTT13=
EXTT14=
PLAYORDER=
